<?xml version="1.0" standalone="no"?>
<!DOCTYPE svg PUBLIC "-//W3C//DTD SVG 20010904//EN"
 "http://www.w3.org/TR/2001/REC-SVG-20010904/DTD/svg10.dtd">
<svg version="1.0" xmlns="http://www.w3.org/2000/svg"
 width="260.000000pt" height="260.000000pt" viewBox="0 0 260.000000 260.000000"
 preserveAspectRatio="xMidYMid meet">
<metadata>
Created by potrace 1.11, written by Peter Selinger 2001-2013
</metadata>
<g transform="translate(0.000000,260.000000) scale(0.100000,-0.100000)"
fill="#000000" stroke="none">
<path d="M580 2347 c-105 -19 -197 -81 -246 -163 -45 -76 -52 -122 -54 -337
-1 -210 -7 -263 -41 -328 -22 -43 -82 -92 -135 -109 l-34 -12 0 -67 0 -67 38
-13 c63 -23 119 -72 143 -126 24 -53 26 -78 31 -405 3 -147 5 -158 31 -212 59
-120 196 -192 380 -197 l47 -2 0 86 c0 73 -3 86 -17 91 -91 30 -134 76 -147
154 -3 19 -6 120 -6 224 -1 158 -5 200 -22 254 -24 80 -77 140 -159 181 l-60
30 54 34 c77 49 125 101 156 166 25 54 26 63 29 276 2 121 8 237 13 257 14 55
52 94 109 113 l50 17 0 84 0 84 -58 -2 c-31 -1 -77 -6 -102 -11z"/>
<path d="M1840 2277 l0 -85 49 -17 c59 -19 93 -51 108 -100 7 -21 12 -122 13
-235 1 -200 10 -273 44 -338 22 -43 90 -108 146 -140 l51 -29 -55 -31 c-109
-62 -157 -122 -176 -221 -5 -28 -10 -136 -10 -241 -2 -215 -11 -263 -63 -306
-16 -14 -48 -32 -69 -41 l-38 -15 0 -85 0 -85 78 5 c114 8 174 27 247 77 56
38 91 84 115 150 16 43 19 82 20 269 1 237 3 257 29 316 29 63 89 114 154 130
26 7 27 9 27 74 l0 67 -34 12 c-67 25 -116 66 -144 123 -25 52 -26 62 -33 304
-6 216 -10 257 -27 300 -53 133 -171 207 -354 221 l-78 7 0 -86z"/>
<path d="M1213 1939 c-146 -30 -285 -132 -353 -261 -53 -98 -71 -178 -76 -323
-9 -306 79 -477 301 -584 178 -86 436 -77 591 21 93 59 189 183 210 271 l6 27
-153 0 -154 0 -35 -47 c-51 -68 -106 -93 -200 -89 -149 5 -233 88 -257 254
l-6 42 413 0 412 0 -5 108 c-9 175 -34 264 -103 368 -73 110 -182 180 -325
210 -72 15 -202 17 -266 3z m238 -263 c55 -26 96 -72 119 -132 38 -102 56 -94
-231 -94 l-251 0 7 33 c19 93 84 177 157 203 47 17 156 11 199 -10z"/>
</g>
</svg>
